<svg xmlns="http://www.w3.org/2000/svg" xmlns:xlink="http://www.w3.org/1999/xlink" height="100" width="100" version="1.1"><path d="M1050 1292q29 0 171 -9l85 -5q122 -19 133 -23q20 -9 20 -13q-1 -12 -45 -18q-5 -1 -114 -28q-98 -24 -289 -24q-172 0 -369 30q-106 15 -111 29q-2 3 -2 5q0 15 41 21q7 1 213 22q134 13 267 13zM929 865q23 0 241 -12q188 -10 251 -22q121 -23 141 -24q36 -1 32 -16
q-3 -10 -11 -13q-33 -11 -296 -32l-229 -4l-68 -1q-26 0 -149 8q-342 15 -361 19q-56 11 -59 25q-1 2 -1 3l-1 1h1q4 8 14 10q27 7 345 44q120 14 150 14zM1126 421q1 0 104 -11q45 -5 103 -46q118 -84 118 -224q0 -134 -94 -205t-270 -71q-189 0 -314 105q-87 73 -87 184
q0 41 12 78q28 83 141 171q105 82 130 127q19 36 16 75q-6 108 17 108q6 0 13 -8q19 -19 32.5 -62.5t13.5 -84.5q0 -73 -39 -117q-10 -13 -128 -95q-108 -76 -108 -179q0 -196 279 -196q166 0 231 52q53 44 53 134q0 178 -140 215q-89 23 -96 30q-4 5 -4 10q0 10 17 10z" style="" transform="scale(0.05 -0.05) translate(0 -1650)"/></svg>