<svg xmlns="http://www.w3.org/2000/svg" xmlns:xlink="http://www.w3.org/1999/xlink" height="100" width="100" version="1.1"><path d="M1138 440q27 -26 41 -40q68 -65 68 -89q0 -29 -36 -29q-26 0 -68 44l-27 27q-10 9 -28 28q-53 -118 -53 -331l1 -113v-106q0 -43 -34 -43q-23 0 -32 15q-12 21 -12 184q0 177 21 311q12 80 51 145q-64 85 -87 207q-26 -12 -38 -12q-32 0 -32 33q0 24 31 42l30 17
q-1 25 -1 33q0 183 99 238q45 25 166 36q3 31 7 63q-118 8 -157 63q-28 40 -28 143q0 59 10 76q10 16 29 16q21 0 27 -16q5 -12 7 -89q2 -63 13 -77q25 -34 106 -41q5 49 7 65q24 244 32 260q9 17 30 17q33 0 33 -50q0 -6 -9 -102q-9 -109 -17 -191q15 1 23 1q92 3 111 37
q14 23 21 146q2 42 30 42q37 0 37 -60q0 -146 -23 -181q-34 -50 -137 -59q-26 -2 -69 -3l-4 -55q60 2 112 2q138 0 162 -10q28 -12 28 -37q0 -30 -50 -30h-24h-21q15 -102 15 -163q0 -43 -7 -90l110 -76q24 -16 24 -42q0 -35 -28 -35q-15 0 -36 14l-100 70q-46 -58 -129 -99
q27 -38 50 -63q14 -15 89 -73q31 -24 31 -82q0 -53 -38 -100q-7 -8 -92 -98q-33 -35 -33 -64q0 -55 119 -148q83 -65 83 -108q0 -29 -31 -29q-17 0 -47 26q-31 29 -61 54q-92 78 -116 127q-22 45 -22 81q0 68 82 146q76 72 76 106q0 22 -45 58q-69 56 -121 128
q-73 -33 -119 -67zM1077 483q61 44 136 75q-36 88 -36 240q0 59 8 144q-105 -10 -141 -37q-40 -31 -39 -148l90 52q23 13 39 13q33 0 33 -34q0 -22 -40 -45l-115 -66q21 -130 65 -194zM1407 952q-46 0 -144 -4q-2 -18 -4 -47q-5 -47 -5 -97q0 -125 34 -208q73 41 100 78
l-89 62q-28 19 -28 41q0 33 32 33q18 0 39 -14l75 -52q5 32 5 53q0 27 -8 93zM566 1343q31 0 50 -41q29 -63 29 -189q0 -121 -27 -246q-28 -126 -56 -148q-13 -10 -28 -10q-29 0 -29 26q0 12 39 155q24 87 24 234q0 88 -26 163q-6 16 -6 28q0 28 30 28zM852 1368
q29 0 49 -36q25 -48 25 -220q0 -117 -21 -228q-30 -159 -79 -159q-33 0 -31 32q1 16 25 108q27 106 27 261q0 84 -21 187q-4 17 -4 27q0 28 30 28zM570 622q33 0 33 -33q0 -14 -7 -38q-62 -194 -62 -338q0 -164 39 -286q16 -50 16 -65q0 -40 -32 -40q-24 0 -41 35
q-64 132 -64 376q0 124 45 280q31 109 73 109zM831 596q31 0 30 -30q0 -11 -16 -80q-11 -50 -11 -106q0 -89 29 -202q7 -28 51 -158q9 -26 9 -35q0 -26 -30 -26q-32 0 -57 53q-83 180 -83 373q0 133 44 193q13 18 34 18zM669 1449q38 0 62 -52q45 -92 45 -299
q0 -104 -40 -408q-39 -294 -39 -454q0 -124 29 -229q17 -64 67 -168q10 -22 10 -36q0 -21 -18 -32q-9 -5 -16 -5q-33 0 -70 73q-85 167 -85 384q0 175 71 692q12 89 12 178q0 167 -45 275q-12 29 -14 45q-1 14 9 26q8 10 22 10z" style="" transform="scale(0.05 -0.05) translate(0 -1650)"/></svg>