<svg xmlns="http://www.w3.org/2000/svg" xmlns:xlink="http://www.w3.org/1999/xlink" height="100" width="100" version="1.1"><path d="M1072 1107l1 -161q2 -268 6 -507q3 -227 3 -356q0 -70 3 -202q2 -91 -37 -91q-31 0 -40 51q-6 32 -9 303l-2 193q-7 472 -8 769q-187 -3 -222 -10q-81 -16 -99 -67q-10 -27 -21 -217l10 -389q0 -12 -6 -150q-3 -69 -3 -126t3 -98q3 -50 3 -52q-7 -129 -10 -151.5
t-13 -27.5q-25 -12 -31 -12q-12 0 -23 16q-13 18 -13 43l4 52l2 34l-4 366l2 379l-4 196q0 201 79 258q64 46 232 46h35h79l1 153q-111 -2 -184 -2q-48 0 -138 1q-35 1 -50 1q-12 0 -91 -2q-61 -1 -61 34q0 20 26 31q21 9 205 13q357 6 432 6q147 0 283 6q11 1 24 1
q84 0 98 -10q15 -11 15 -28q0 -37 -55 -38l-57 -2l-145 -4q-134 -3 -222 -5q0 -8 1 -26v-31v-98h42h19q233 0 302 -36q38 -20 53 -60q24 -69 22 -218q-1 -107 12 -373q14 -266 14 -563q0 -101 -48 -101q-17 0 -26 17q-14 30 -17 247q-1 122 -17 602q-8 265 -16 306
q-13 62 -70 75q-66 15 -269 15zM859 859q93 0 93 -34q0 -43 -88 -39q-16 1 -95 -6q-14 -1 -23 -1q-48 0 -48 38q0 23 16 32q19 10 145 10zM1272 862q92 0 92 -34q0 -13 -6 -22q-13 -20 -82 -17q-15 0 -95 -6q-14 -1 -23 -1q-48 0 -48 38q0 23 16 32q19 10 146 10zM1275 584
q92 0 92 -34q0 -13 -6 -22q-13 -20 -83 -17q-19 1 -93 -6q-15 -1 -24 -1q-47 0 -47 39q0 23 16 31q19 10 145 10zM860 584q92 0 92 -34q0 -13 -6 -22q-13 -20 -83 -17q-19 1 -94 -6q-14 -1 -23 -1q-47 0 -47 39q0 23 16 31q19 10 145 10z" style="" transform="scale(0.05 -0.05) translate(0 -1650)"/></svg>