<svg xmlns="http://www.w3.org/2000/svg" xmlns:xlink="http://www.w3.org/1999/xlink" height="100" width="100" version="1.1"><path d="M998 571q-14 -70 -108 -82l-194 -23q-98 -12 -140 -61q-23 -26 -23 -60q0 -94 120 -94q91 0 169 50q72 46 85 53q11 5 27 5q33 0 58 -39q26 -40 26 -83q0 -73 -61 -122q-47 -38 -186 -120q-9 -5 -23 -32q-9 -18 -9 -35q0 -33 29 -62q32 -32 81 -32q53 0 106 35
q27 17 120 106q99 95 227 95q73 0 116 -38q10 -9 10 -21q0 -13 -11 -23q-9 -9 -20 -9q-14 0 -73 12q-12 3 -19 3q-38 0 -106 -25q-41 -15 -49 -22l-169 -147q-36 -31 -107 -31q-101 0 -153 55q-44 46 -44 116q0 56 28 89q12 14 179 110q70 40 70 115q0 31 -23 31
q-21 0 -58 -29q-48 -37 -127 -60q-64 -18 -100 -18q-51 0 -118 39q-62 35 -62 129q0 56 36 102q59 76 165 89l179 23q63 7 86 27q7 6 7 25q0 24 -8 37q-9 14 -107 30q-36 5 -96 37q-37 20 -46 32q-34 50 -34 85q0 30 31 30q7 0 15 -6q2 -1 41 -55q27 -38 186 -54
q37 -4 70 -64q14 -26 14 -48q0 -11 -2 -30q79 -11 119 -15q98 -13 164 -50q71 -41 92 -68q40 -53 40 -119q0 -75 -54 -123q-39 -34 -107 -34q-62 0 -104 26q-55 34 -91 95q-26 46 -26 86q0 26 20 26h3q9 0 36 -54q22 -42 76 -82q32 -23 71 -23q49 0 87 31q19 15 19 73
q0 31 -23 54q-54 56 -142 75q-130 29 -136 32q-13 6 -49 35zM778 1353h461q46 0 58 -11q9 -9 9 -33q0 -35 -42 -35h-486q-36 0 -42 10t-6 24q0 45 48 45zM606 1049l-25 -389q-5 -85 -49 -85q-29 0 -26 30l1 11l27 458q17 295 62 368q63 100 227 99h284q240 -1 295 -49
q58 -51 58 -204q0 -120 -38 -155q-25 -23 -59 -25l-239 -14l-168 -2q-100 -6 -116 -14q-24 -12 -24 -62q0 -60 41 -56l240 17q61 5 109 5q99 0 145 -6q63 -8 92 -59q26 -45 44 -119l51 -207q0 -14 2 -22l-6 -34l3 -16q0 -3 -9.5 -7.5t-13.5 -4.5q-17 0 -31 15q-2 2 -80 299
q-22 85 -103 85l-39 -2l-106 -4l-197 -15q-43 -3 -81 -3q-65 0 -93 26q-35 32 -35 112q0 83 40 118q43 36 130 37l155 2q245 4 276 21q32 17 32 84q0 13 2 43v8q0 49 -25 80q-19 23 -45 31q-23 7 -130 7l-254 2q-173 0 -204 -10q-81 -26 -94 -146z" style="" transform="scale(0.05 -0.05) translate(0 -1650)"/></svg>